<mxfile host="65bd71144e">
    <diagram name="ページ1" id="IFD1RAem_K-ZAV3oo2KV">
        <mxGraphModel dx="3579" dy="1176" grid="1" gridSize="13" guides="1" tooltips="1" connect="1" arrows="1" fold="1" page="1" pageScale="1" pageWidth="1169" pageHeight="827" math="0" shadow="0">
            <root>
                <mxCell id="0"/>
                <mxCell id="1" parent="0"/>
                <mxCell id="okDV8PVauEzt9EahW7J7-1" value="&lt;b&gt;HomePage&lt;/b&gt;&lt;div&gt;(Trang chủ và giới thiệu quán.)&lt;/div&gt;" style="rounded=0;whiteSpace=wrap;html=1;" parent="1" vertex="1">
                    <mxGeometry x="492.5" y="104" width="181" height="60" as="geometry"/>
                </mxCell>
                <mxCell id="okDV8PVauEzt9EahW7J7-19" style="rounded=0;orthogonalLoop=1;jettySize=auto;html=1;" parent="1" source="okDV8PVauEzt9EahW7J7-2" target="okDV8PVauEzt9EahW7J7-1" edge="1">
                    <mxGeometry relative="1" as="geometry"/>
                </mxCell>
                <mxCell id="okDV8PVauEzt9EahW7J7-20" style="rounded=0;orthogonalLoop=1;jettySize=auto;html=1;" parent="1" source="okDV8PVauEzt9EahW7J7-2" target="okDV8PVauEzt9EahW7J7-6" edge="1">
                    <mxGeometry relative="1" as="geometry"/>
                </mxCell>
                <mxCell id="okDV8PVauEzt9EahW7J7-21" style="rounded=0;orthogonalLoop=1;jettySize=auto;html=1;" parent="1" source="okDV8PVauEzt9EahW7J7-2" target="okDV8PVauEzt9EahW7J7-7" edge="1">
                    <mxGeometry relative="1" as="geometry"/>
                </mxCell>
                <mxCell id="okDV8PVauEzt9EahW7J7-22" style="rounded=0;orthogonalLoop=1;jettySize=auto;html=1;" parent="1" source="okDV8PVauEzt9EahW7J7-2" target="okDV8PVauEzt9EahW7J7-9" edge="1">
                    <mxGeometry relative="1" as="geometry"/>
                </mxCell>
                <mxCell id="okDV8PVauEzt9EahW7J7-23" style="rounded=0;orthogonalLoop=1;jettySize=auto;html=1;" parent="1" source="okDV8PVauEzt9EahW7J7-2" target="okDV8PVauEzt9EahW7J7-14" edge="1">
                    <mxGeometry relative="1" as="geometry"/>
                </mxCell>
                <mxCell id="okDV8PVauEzt9EahW7J7-24" style="rounded=0;orthogonalLoop=1;jettySize=auto;html=1;" parent="1" source="okDV8PVauEzt9EahW7J7-2" target="okDV8PVauEzt9EahW7J7-16" edge="1">
                    <mxGeometry relative="1" as="geometry"/>
                </mxCell>
                <mxCell id="okDV8PVauEzt9EahW7J7-25" style="rounded=0;orthogonalLoop=1;jettySize=auto;html=1;" parent="1" source="okDV8PVauEzt9EahW7J7-2" target="okDV8PVauEzt9EahW7J7-15" edge="1">
                    <mxGeometry relative="1" as="geometry"/>
                </mxCell>
                <mxCell id="okDV8PVauEzt9EahW7J7-26" style="rounded=0;orthogonalLoop=1;jettySize=auto;html=1;" parent="1" source="okDV8PVauEzt9EahW7J7-2" target="okDV8PVauEzt9EahW7J7-17" edge="1">
                    <mxGeometry relative="1" as="geometry"/>
                </mxCell>
                <mxCell id="okDV8PVauEzt9EahW7J7-2" value="&lt;font size=&quot;1&quot;&gt;&lt;b style=&quot;font-size: 15px;&quot;&gt;Coffee Shop&lt;/b&gt;&lt;/font&gt;" style="rounded=0;whiteSpace=wrap;html=1;fillColor=#dae8fc;strokeColor=#6c8ebf;" parent="1" vertex="1">
                    <mxGeometry x="506" y="356.5" width="153" height="101" as="geometry"/>
                </mxCell>
                <mxCell id="okDV8PVauEzt9EahW7J7-6" value="&lt;b&gt;Menu&lt;/b&gt;&lt;div&gt;(Thực đơn và các món đồ uống, đồ ăn.)&lt;/div&gt;" style="rounded=0;whiteSpace=wrap;html=1;" parent="1" vertex="1">
                    <mxGeometry x="796" y="182" width="185.5" height="60" as="geometry"/>
                </mxCell>
                <mxCell id="okDV8PVauEzt9EahW7J7-7" value="&lt;b&gt;Events&lt;/b&gt;&lt;div&gt;(Sự kiện và khuyến mãi.)&lt;/div&gt;" style="rounded=0;whiteSpace=wrap;html=1;" parent="1" vertex="1">
                    <mxGeometry x="939" y="377" width="143" height="60" as="geometry"/>
                </mxCell>
                <mxCell id="okDV8PVauEzt9EahW7J7-9" value="&lt;b&gt;Testimonials&lt;/b&gt;&lt;div&gt;(Cảm nhận từ khách hàng.)&lt;/div&gt;" style="rounded=0;whiteSpace=wrap;html=1;" parent="1" vertex="1">
                    <mxGeometry x="810.75" y="572" width="156" height="60" as="geometry"/>
                </mxCell>
                <mxCell id="okDV8PVauEzt9EahW7J7-14" value="&lt;b&gt;Blog&lt;/b&gt;&lt;div&gt;(Bài viết về quán, đồ uống, hoặc những nội dung liên quan.)&lt;/div&gt;" style="rounded=0;whiteSpace=wrap;html=1;" parent="1" vertex="1">
                    <mxGeometry x="491.5" y="638" width="182" height="60" as="geometry"/>
                </mxCell>
                <mxCell id="okDV8PVauEzt9EahW7J7-15" value="&lt;b&gt;Orders&lt;/b&gt;&lt;div&gt;(Đặt hàng trực tuyến và thanh toán.)&lt;/div&gt;" style="rounded=0;whiteSpace=wrap;html=1;" parent="1" vertex="1">
                    <mxGeometry x="117" y="367" width="120" height="60" as="geometry"/>
                </mxCell>
                <mxCell id="okDV8PVauEzt9EahW7J7-16" value="&lt;font face=&quot;monospace&quot;&gt;&lt;b&gt;Contact&lt;/b&gt;&lt;/font&gt;&lt;br&gt;&lt;div&gt;(Liên hệ và bản đồ.)&amp;nbsp;&lt;/div&gt;" style="rounded=0;whiteSpace=wrap;html=1;" parent="1" vertex="1">
                    <mxGeometry x="211" y="572" width="120" height="60" as="geometry"/>
                </mxCell>
                <mxCell id="okDV8PVauEzt9EahW7J7-17" value="&lt;b&gt;Account&lt;/b&gt;&lt;div&gt;(Đăng ký và quản lý thành viên.)&lt;/div&gt;" style="rounded=0;whiteSpace=wrap;html=1;" parent="1" vertex="1">
                    <mxGeometry x="250" y="182" width="120" height="60" as="geometry"/>
                </mxCell>
                <mxCell id="okDV8PVauEzt9EahW7J7-27" value="&lt;font style=&quot;font-size: 27px;&quot;&gt;&lt;b&gt;Thiết kế hệ thống&lt;/b&gt;&lt;/font&gt;" style="rounded=0;whiteSpace=wrap;html=1;fillColor=#ffe6cc;strokeColor=#d79b00;" parent="1" vertex="1">
                    <mxGeometry width="312" height="52" as="geometry"/>
                </mxCell>
                <mxCell id="okDV8PVauEzt9EahW7J7-28" value="Phân Tích Yêu Cầu&lt;div&gt;(Requirements analysis)&lt;/div&gt;&lt;div&gt;要件分析&lt;/div&gt;" style="rounded=0;whiteSpace=wrap;html=1;fillColor=#ffe6cc;strokeColor=#d79b00;" parent="1" vertex="1">
                    <mxGeometry x="-1326" y="-130" width="156" height="65" as="geometry"/>
                </mxCell>
                <mxCell id="okDV8PVauEzt9EahW7J7-30" value="Thiết kế hệ thống&lt;div&gt;(System design)&lt;/div&gt;&lt;div&gt;システム設計&lt;/div&gt;" style="rounded=0;whiteSpace=wrap;html=1;fillColor=#fff2cc;strokeColor=#d6b656;" parent="1" vertex="1">
                    <mxGeometry x="-1170" y="26" width="156" height="65" as="geometry"/>
                </mxCell>
                <mxCell id="CxxvZHm-3sX6GsOQsB4d-29" style="edgeStyle=orthogonalEdgeStyle;rounded=0;orthogonalLoop=1;jettySize=auto;html=1;" parent="1" source="okDV8PVauEzt9EahW7J7-43" target="CxxvZHm-3sX6GsOQsB4d-28" edge="1">
                    <mxGeometry relative="1" as="geometry">
                        <Array as="points">
                            <mxPoint x="-104" y="1092"/>
                        </Array>
                    </mxGeometry>
                </mxCell>
                <mxCell id="okDV8PVauEzt9EahW7J7-43" value="Thiết kế CSDL&lt;div&gt;(Database)&lt;/div&gt;" style="rounded=0;whiteSpace=wrap;html=1;" parent="1" vertex="1">
                    <mxGeometry x="-182" y="884" width="156" height="65" as="geometry"/>
                </mxCell>
                <mxCell id="okDV8PVauEzt9EahW7J7-47" value="Luồng người dùng &amp;amp; luồng dữ liệu" style="rounded=0;whiteSpace=wrap;html=1;" parent="1" vertex="1">
                    <mxGeometry x="-676" y="957" width="156" height="65" as="geometry"/>
                </mxCell>
                <mxCell id="okDV8PVauEzt9EahW7J7-48" value="Thiết kế giao diện người dùng&lt;div&gt;(Screen diagram)&lt;/div&gt;&lt;div&gt;画面設計&lt;/div&gt;" style="rounded=0;whiteSpace=wrap;html=1;fillColor=#fff2cc;strokeColor=#d6b656;" parent="1" vertex="1">
                    <mxGeometry x="-832" y="348" width="169" height="65" as="geometry"/>
                </mxCell>
                <mxCell id="okDV8PVauEzt9EahW7J7-55" value="・Xác định các chức năng chính&lt;div&gt;・Đặc điểm từng tính năng và đối tượng người dùng mục tiêu.&lt;br&gt;&lt;/div&gt;&lt;div&gt;・Định nghĩa vai trò người dùng và quyền truy cập.&lt;/div&gt;" style="shape=callout;whiteSpace=wrap;html=1;perimeter=calloutPerimeter;align=left;" parent="1" vertex="1">
                    <mxGeometry x="-1248" y="-260" width="185" height="130" as="geometry"/>
                </mxCell>
                <mxCell id="okDV8PVauEzt9EahW7J7-58" value="・Vì build trên Django nên thiết kế theo mô hình MVC (Model-View-Controller)&lt;div&gt;・&lt;strong style=&quot;background-color: initial;&quot;&gt;Cấu trúc dự án&lt;/strong&gt;&lt;span style=&quot;background-color: initial;&quot;&gt;: Định nghĩa&amp;nbsp; các ứng dụng (apps) trong dự án&lt;/span&gt;&lt;/div&gt;" style="shape=callout;whiteSpace=wrap;html=1;perimeter=calloutPerimeter;align=left;" parent="1" vertex="1">
                    <mxGeometry x="-1092" y="-104" width="185" height="130" as="geometry"/>
                </mxCell>
                <mxCell id="okDV8PVauEzt9EahW7J7-59" value="・Sử dụng s&lt;span style=&quot;text-align: center;&quot;&gt;ơ đồ ERD&lt;/span&gt;&lt;div&gt;・Xác định các models cho từng app&lt;div&gt;・Xác định các fields cho từng models&lt;br&gt;&lt;div&gt;・Thiết kế liên kết các quan hệ giữa các models với nhau&lt;/div&gt;&lt;/div&gt;&lt;/div&gt;" style="shape=callout;whiteSpace=wrap;html=1;perimeter=calloutPerimeter;align=left;" parent="1" vertex="1">
                    <mxGeometry x="-130" y="741" width="195" height="143" as="geometry"/>
                </mxCell>
                <mxCell id="okDV8PVauEzt9EahW7J7-62" value="・Phác thảo layout cho từng trang (&lt;b&gt;Draft&amp;nbsp; /&amp;nbsp; Wireframes&lt;/b&gt;)&lt;div&gt;・Xác định bố cục và các mục của thanh điều hướng (&lt;b&gt;Navigation&lt;/b&gt;)&lt;/div&gt;&lt;div&gt;・Đảm bảo giao diện phù hợp trên cả desktop và mobile (&lt;b&gt;Responsive Design&lt;/b&gt;)&lt;/div&gt;" style="shape=callout;whiteSpace=wrap;html=1;perimeter=calloutPerimeter;align=left;" parent="1" vertex="1">
                    <mxGeometry x="-767" y="218" width="221" height="130" as="geometry"/>
                </mxCell>
                <mxCell id="okDV8PVauEzt9EahW7J7-67" value="・Vẽ sơ đồ luồng cho các tác vụ chính, ví dụ: đặt hàng, đăng ký thành viên, xem blog.&amp;nbsp;&lt;div&gt;・Xác định các bước xử lý và luồng dữ liệu từ giao diện người dùng đến backend.&lt;/div&gt;" style="shape=callout;whiteSpace=wrap;html=1;perimeter=calloutPerimeter;align=left;" parent="1" vertex="1">
                    <mxGeometry x="-611" y="827" width="195" height="130" as="geometry"/>
                </mxCell>
                <mxCell id="okDV8PVauEzt9EahW7J7-68" value="Thiết kế API (nếu cần) " style="rounded=0;whiteSpace=wrap;html=1;" parent="1" vertex="1">
                    <mxGeometry x="-507" y="1093" width="156" height="65" as="geometry"/>
                </mxCell>
                <mxCell id="okDV8PVauEzt9EahW7J7-69" value="Thiết kế các API endpoint nếu có tính năng như đặt hàng trực tuyến, hoặc hiển thị menu động." style="shape=callout;whiteSpace=wrap;html=1;perimeter=calloutPerimeter;align=left;" parent="1" vertex="1">
                    <mxGeometry x="-442" y="1002" width="195" height="91" as="geometry"/>
                </mxCell>
                <mxCell id="okDV8PVauEzt9EahW7J7-70" value="Xác định công nghệ và công cụ hỗ trợ " style="rounded=0;whiteSpace=wrap;html=1;fillColor=#ffe6cc;strokeColor=#d79b00;" parent="1" vertex="1">
                    <mxGeometry x="-1014" y="182" width="156" height="65" as="geometry"/>
                </mxCell>
                <mxCell id="okDV8PVauEzt9EahW7J7-71" value="・Frontend：HTML, CSS, JS, ...&lt;div&gt;・Backend：Django, ...&lt;/div&gt;&lt;div&gt;・&lt;span style=&quot;background-color: initial;&quot;&gt;Database: SQLite,...&lt;/span&gt;&lt;/div&gt;&lt;div&gt;・Version Control：Git và GitHub&lt;span style=&quot;background-color: initial;&quot;&gt;&lt;br&gt;&lt;/span&gt;&lt;/div&gt;" style="shape=callout;whiteSpace=wrap;html=1;perimeter=calloutPerimeter;align=left;" parent="1" vertex="1">
                    <mxGeometry x="-936" y="52" width="195" height="130" as="geometry"/>
                </mxCell>
                <mxCell id="okDV8PVauEzt9EahW7J7-73" value="Thiết kế sơ đồ Domain" style="rounded=0;whiteSpace=wrap;html=1;fillColor=#ffe6cc;strokeColor=#d79b00;" parent="1" vertex="1">
                    <mxGeometry x="-689" y="491" width="169" height="65" as="geometry"/>
                </mxCell>
                <mxCell id="okDV8PVauEzt9EahW7J7-76" value="&lt;font style=&quot;font-size: 53px;&quot;&gt;☚&lt;/font&gt;" style="shape=callout;whiteSpace=wrap;html=1;perimeter=calloutPerimeter;align=center;" parent="1" vertex="1">
                    <mxGeometry x="-598" y="413" width="195" height="76" as="geometry"/>
                </mxCell>
                <mxCell id="okDV8PVauEzt9EahW7J7-77" value="Sơ đồ Domain" style="rounded=0;whiteSpace=wrap;html=1;fillColor=#fff2cc;strokeColor=#000000;fontStyle=1;fontSize=17;strokeWidth=1;" parent="1" vertex="1">
                    <mxGeometry x="-2338" y="-45" width="169" height="39" as="geometry"/>
                </mxCell>
                <mxCell id="okDV8PVauEzt9EahW7J7-78" value="&lt;p style=&quot;font-size: 15px;&quot;&gt;Sơ đồ domain đóng vai trò quan trọng trong quá trình thiết kế một trang web, đặc biệt là khi xác định cấu trúc dữ liệu và các mối quan hệ giữa các thành phần trong hệ thống. Đây là một phần trong quá trình thiết kế tổng thể, &lt;b style=&quot;font-size: 15px;&quot;&gt;giúp cho các lập trình viên, nhà phát triển, và các bên liên quan hiểu rõ cách tổ chức dữ liệu và chức năng của trang web&lt;/b&gt;. Cụ thể, sơ đồ domain có những vai trò sau:&lt;/p&gt;&lt;ol style=&quot;font-size: 15px;&quot;&gt;&lt;li style=&quot;font-size: 15px;&quot;&gt;&lt;p style=&quot;font-size: 15px;&quot;&gt;&lt;strong style=&quot;font-size: 15px;&quot;&gt;Xác định các thành phần chính&lt;/strong&gt;: Sơ đồ domain giúp xác định các thực thể chính (domain entities) của trang web. Ví dụ, trong trang web giới thiệu cửa hàng cà phê, các thực thể chính có thể bao gồm &quot;Cửa hàng,&quot; &quot;Sản phẩm,&quot; &quot;Khách hàng,&quot; và &quot;Đơn hàng.&quot;&lt;/p&gt;&lt;/li&gt;&lt;li style=&quot;font-size: 15px;&quot;&gt;&lt;p style=&quot;font-size: 15px;&quot;&gt;&lt;strong style=&quot;font-size: 15px;&quot;&gt;Thiết lập các mối quan hệ&lt;/strong&gt;: Sơ đồ domain chỉ ra mối quan hệ giữa các thực thể, ví dụ như mối quan hệ giữa &quot;Khách hàng&quot; và &quot;Đơn hàng&quot; hay giữa &quot;Sản phẩm&quot; và &quot;Cửa hàng.&quot; Điều này giúp xây dựng các liên kết dữ liệu và chức năng trên trang web.&lt;/p&gt;&lt;/li&gt;&lt;li style=&quot;font-size: 15px;&quot;&gt;&lt;p style=&quot;font-size: 15px;&quot;&gt;&lt;strong style=&quot;font-size: 15px;&quot;&gt;Tối ưu hoá kiến trúc dữ liệu&lt;/strong&gt;: Khi có sơ đồ domain, bạn dễ dàng phát hiện các phần dữ liệu trùng lặp hoặc không cần thiết, từ đó có thể tối ưu hoá thiết kế cơ sở dữ liệu và logic xử lý dữ liệu trên trang web.&lt;/p&gt;&lt;/li&gt;&lt;li style=&quot;font-size: 15px;&quot;&gt;&lt;p style=&quot;font-size: 15px;&quot;&gt;&lt;strong style=&quot;font-size: 15px;&quot;&gt;Định nghĩa ranh giới chức năng&lt;/strong&gt;: Với sơ đồ domain, bạn có thể xác định ranh giới của từng thành phần và chức năng tương ứng của nó, tránh việc chồng chéo trong vai trò và trách nhiệm của các phần khác nhau trong trang web.&lt;/p&gt;&lt;/li&gt;&lt;li style=&quot;font-size: 15px;&quot;&gt;&lt;p style=&quot;font-size: 15px;&quot;&gt;&lt;strong style=&quot;font-size: 15px;&quot;&gt;Tăng cường khả năng bảo trì và mở rộng&lt;/strong&gt;: Khi hệ thống phát triển hoặc cần thêm chức năng mới, sơ đồ domain giúp hiểu rõ cấu trúc hiện tại để việc mở rộng và bảo trì dễ dàng hơn mà không gây xung đột hoặc lỗi hệ thống.&lt;/p&gt;&lt;/li&gt;&lt;li style=&quot;font-size: 15px;&quot;&gt;&lt;p style=&quot;font-size: 15px;&quot;&gt;&lt;strong style=&quot;font-size: 15px;&quot;&gt;Hỗ trợ giao tiếp giữa các thành viên&lt;/strong&gt;: Sơ đồ domain là công cụ giúp các thành viên trong nhóm, dù ở các mảng khác nhau, hiểu được hệ thống và có cái nhìn đồng nhất, từ đó giúp quá trình phát triển trở nên mạch lạc và hiệu quả hơn.&lt;/p&gt;&lt;/li&gt;&lt;/ol&gt;&lt;p style=&quot;font-size: 15px;&quot;&gt;Việc thiết kế sơ đồ domain trước khi bắt đầu viết code giúp dev&lt;b style=&quot;font-size: 15px;&quot;&gt; có cái nhìn toàn diện về cách dữ liệu sẽ luân chuyển trong hệ thống, tiết kiệm thời gian điều chỉnh&lt;/b&gt; trong quá trình triển khai thực tế.&lt;/p&gt;" style="text;html=1;align=left;verticalAlign=middle;whiteSpace=wrap;rounded=0;fillColor=#f5f5f5;fontColor=#333333;strokeColor=#666666;fontSize=15;" parent="1" vertex="1">
                    <mxGeometry x="-2338" y="-6" width="674" height="741" as="geometry"/>
                </mxCell>
                <mxCell id="okDV8PVauEzt9EahW7J7-79" value="Thiết kế Usecase&lt;div&gt;ユースケース図&lt;/div&gt;" style="rounded=0;whiteSpace=wrap;html=1;fillColor=#fff2cc;strokeColor=#d6b656;" parent="1" vertex="1">
                    <mxGeometry x="-520" y="624" width="169" height="65" as="geometry"/>
                </mxCell>
                <mxCell id="okDV8PVauEzt9EahW7J7-80" value="&lt;font style=&quot;font-size: 53px;&quot;&gt;☚&lt;/font&gt;" style="shape=callout;whiteSpace=wrap;html=1;perimeter=calloutPerimeter;align=center;" parent="1" vertex="1">
                    <mxGeometry x="-442" y="546" width="195" height="76" as="geometry"/>
                </mxCell>
                <mxCell id="okDV8PVauEzt9EahW7J7-83" value="Thiết kế Usecase" style="rounded=0;whiteSpace=wrap;html=1;fillColor=#fff2cc;strokeColor=#000000;fontStyle=1;fontSize=17;" parent="1" vertex="1">
                    <mxGeometry x="-1612" y="52" width="169" height="39" as="geometry"/>
                </mxCell>
                <mxCell id="okDV8PVauEzt9EahW7J7-84" value="Thiết kế use case giúp xác định &lt;strong style=&quot;font-size: 15px;&quot;&gt;các chức năng chính&lt;/strong&gt; của hệ thống và &lt;strong style=&quot;font-size: 15px;&quot;&gt;cách người dùng tương tác&lt;/strong&gt; với chúng. Nó mô tả ai sẽ sử dụng hệ thống (actor) và các chức năng mà hệ thống cần cung cấp để đáp ứng yêu cầu của người dùng. Điều này giúp nhóm phát triển hiểu rõ &lt;strong style=&quot;font-size: 15px;&quot;&gt;những gì cần xây dựng&lt;/strong&gt; và &lt;strong style=&quot;font-size: 15px;&quot;&gt;phạm vi chức năng&lt;/strong&gt; của trang web trước khi bắt tay vào code." style="text;html=1;align=left;verticalAlign=middle;whiteSpace=wrap;rounded=0;fontSize=15;strokeColor=#666666;fillColor=#f5f5f5;fontColor=#333333;" parent="1" vertex="1">
                    <mxGeometry x="-1612" y="91" width="390" height="143" as="geometry"/>
                </mxCell>
                <mxCell id="okDV8PVauEzt9EahW7J7-85" value="use case name: Login" style="rounded=0;whiteSpace=wrap;html=1;align=left;" parent="1" vertex="1">
                    <mxGeometry x="-1599" y="303" width="312" height="52" as="geometry"/>
                </mxCell>
                <mxCell id="okDV8PVauEzt9EahW7J7-86" value="actor: Người dùng (User)" style="rounded=0;whiteSpace=wrap;html=1;align=left;" parent="1" vertex="1">
                    <mxGeometry x="-1599" y="411" width="312" height="52" as="geometry"/>
                </mxCell>
                <mxCell id="okDV8PVauEzt9EahW7J7-87" value="preconditions: TK của User phải đang được đăng ký ở system" style="rounded=0;whiteSpace=wrap;html=1;align=left;" parent="1" vertex="1">
                    <mxGeometry x="-1599" y="466" width="312" height="52" as="geometry"/>
                </mxCell>
                <mxCell id="CxxvZHm-3sX6GsOQsB4d-1" value="postconditions: User sẽ login vào hệ thống" style="rounded=0;whiteSpace=wrap;html=1;align=left;" parent="1" vertex="1">
                    <mxGeometry x="-1599" y="520" width="312" height="52" as="geometry"/>
                </mxCell>
                <mxCell id="CxxvZHm-3sX6GsOQsB4d-2" value="" style="endArrow=none;html=1;rounded=0;" parent="1" edge="1">
                    <mxGeometry width="50" height="50" relative="1" as="geometry">
                        <mxPoint x="-1625" y="609.5" as="sourcePoint"/>
                        <mxPoint x="-1261" y="609.5" as="targetPoint"/>
                        <Array as="points">
                            <mxPoint x="-1443" y="609.5"/>
                        </Array>
                    </mxGeometry>
                </mxCell>
                <mxCell id="CxxvZHm-3sX6GsOQsB4d-3" value="Event flow" style="edgeLabel;html=1;align=center;verticalAlign=middle;resizable=0;points=[];labelBorderColor=default;fontSize=15;labelBackgroundColor=#FFD966;" parent="CxxvZHm-3sX6GsOQsB4d-2" vertex="1" connectable="0">
                    <mxGeometry x="-0.0604" y="-1" relative="1" as="geometry">
                        <mxPoint x="10" y="-4" as="offset"/>
                    </mxGeometry>
                </mxCell>
                <mxCell id="CxxvZHm-3sX6GsOQsB4d-4" value="" style="endArrow=none;html=1;rounded=0;" parent="1" edge="1">
                    <mxGeometry width="50" height="50" relative="1" as="geometry">
                        <mxPoint x="-1638" y="286" as="sourcePoint"/>
                        <mxPoint x="-1274" y="286" as="targetPoint"/>
                        <Array as="points"/>
                    </mxGeometry>
                </mxCell>
                <mxCell id="CxxvZHm-3sX6GsOQsB4d-5" value="Description" style="edgeLabel;html=1;align=center;verticalAlign=middle;resizable=0;points=[];labelBorderColor=default;fontSize=15;labelBackgroundColor=#FFD966;" parent="CxxvZHm-3sX6GsOQsB4d-4" vertex="1" connectable="0">
                    <mxGeometry x="-0.0604" y="-1" relative="1" as="geometry">
                        <mxPoint x="11" y="-4" as="offset"/>
                    </mxGeometry>
                </mxCell>
                <mxCell id="CxxvZHm-3sX6GsOQsB4d-6" value="use case overview: người dùng login vào system" style="rounded=0;whiteSpace=wrap;html=1;align=left;" parent="1" vertex="1">
                    <mxGeometry x="-1599" y="357" width="312" height="52" as="geometry"/>
                </mxCell>
                <mxCell id="CxxvZHm-3sX6GsOQsB4d-10" value="Base flow (Luồng chảy cơ bản) - 基本フロー" style="edgeLabel;html=1;align=center;verticalAlign=middle;resizable=0;points=[];labelBorderColor=default;fontSize=15;labelBackgroundColor=#66B2FF;" parent="1" vertex="1" connectable="0">
                    <mxGeometry x="-1482" y="648" as="geometry">
                        <mxPoint x="-13" y="-3" as="offset"/>
                    </mxGeometry>
                </mxCell>
                <mxCell id="CxxvZHm-3sX6GsOQsB4d-11" value="Alternative Flow (Luồng chảy thay thế) - 代替フロー" style="edgeLabel;html=1;align=center;verticalAlign=middle;resizable=0;points=[];labelBorderColor=default;fontSize=15;labelBackgroundColor=#FF9999;" parent="1" vertex="1" connectable="0">
                    <mxGeometry x="-1469" y="812.5" as="geometry"/>
                </mxCell>
                <mxCell id="CxxvZHm-3sX6GsOQsB4d-13" value="1. Hệ thống hiển thị màn hình &quot;Login&quot;&lt;div&gt;&lt;br&gt;&lt;div&gt;2. User nhập vào &quot;ID&quot; và &quot;Password&quot;&lt;/div&gt;&lt;div&gt;&lt;br&gt;&lt;/div&gt;&lt;div&gt;3. User ấn nút &quot;Đăng nhập&quot;&lt;/div&gt;&lt;div&gt;&lt;br&gt;&lt;/div&gt;&lt;div&gt;4. Hệ thống hiển thị màn hình &quot;Index&quot;&lt;/div&gt;&lt;div&gt;&lt;br&gt;&lt;/div&gt;&lt;/div&gt;" style="rounded=0;whiteSpace=wrap;html=1;align=left;fillColor=#dae8fc;strokeColor=#6c8ebf;" parent="1" vertex="1">
                    <mxGeometry x="-1612" y="660" width="455" height="130" as="geometry"/>
                </mxCell>
                <mxCell id="CxxvZHm-3sX6GsOQsB4d-14" value="&lt;div&gt;&lt;div&gt;3. Case &quot;ID&quot; or &quot;PW&quot; chưa được nhập (để trống mà đăng nhập):&lt;/div&gt;&lt;div&gt;&amp;nbsp; &amp;nbsp; I. Sys show toolchip &quot;Có mục trống. &quot;&lt;/div&gt;&lt;div&gt;&amp;nbsp; &amp;nbsp; II. Back 2&lt;/div&gt;&lt;/div&gt;&lt;div&gt;&lt;br&gt;&lt;/div&gt;3. Trường hợp &quot;ID&quot; hoặc &quot;Password&quot; sai:&lt;div&gt;&amp;nbsp; &amp;nbsp; I. System hiển thị message &quot;ID hoặc mật khẩu của bạn đã nhập không chính xác. &quot;&lt;/div&gt;&lt;div&gt;&amp;nbsp; &amp;nbsp; II. quay lại bước 2&lt;/div&gt;&lt;div&gt;&lt;br&gt;&lt;/div&gt;" style="rounded=0;whiteSpace=wrap;html=1;align=left;fillColor=#f7dfde;strokeColor=#b85450;" parent="1" vertex="1">
                    <mxGeometry x="-1612" y="827" width="468" height="130" as="geometry"/>
                </mxCell>
                <mxCell id="CxxvZHm-3sX6GsOQsB4d-19" style="rounded=0;orthogonalLoop=1;jettySize=auto;html=1;" parent="1" source="CxxvZHm-3sX6GsOQsB4d-16" target="CxxvZHm-3sX6GsOQsB4d-17" edge="1">
                    <mxGeometry relative="1" as="geometry"/>
                </mxCell>
                <mxCell id="CxxvZHm-3sX6GsOQsB4d-16" value="Member" style="ellipse;whiteSpace=wrap;html=1;aspect=fixed;" parent="1" vertex="1">
                    <mxGeometry x="-2023" y="920" width="80" height="80" as="geometry"/>
                </mxCell>
                <mxCell id="CxxvZHm-3sX6GsOQsB4d-17" value="&lt;div&gt;User&lt;/div&gt;" style="ellipse;whiteSpace=wrap;html=1;aspect=fixed;" parent="1" vertex="1">
                    <mxGeometry x="-1943" y="790" width="80" height="80" as="geometry"/>
                </mxCell>
                <mxCell id="CxxvZHm-3sX6GsOQsB4d-20" style="rounded=0;orthogonalLoop=1;jettySize=auto;html=1;" parent="1" source="CxxvZHm-3sX6GsOQsB4d-18" target="CxxvZHm-3sX6GsOQsB4d-17" edge="1">
                    <mxGeometry relative="1" as="geometry"/>
                </mxCell>
                <mxCell id="CxxvZHm-3sX6GsOQsB4d-18" value="Non-member" style="ellipse;whiteSpace=wrap;html=1;aspect=fixed;" parent="1" vertex="1">
                    <mxGeometry x="-1863" y="920" width="80" height="80" as="geometry"/>
                </mxCell>
                <mxCell id="CxxvZHm-3sX6GsOQsB4d-24" style="rounded=0;orthogonalLoop=1;jettySize=auto;html=1;endArrow=oval;endFill=1;" parent="1" source="CxxvZHm-3sX6GsOQsB4d-21" target="CxxvZHm-3sX6GsOQsB4d-16" edge="1">
                    <mxGeometry relative="1" as="geometry"/>
                </mxCell>
                <mxCell id="CxxvZHm-3sX6GsOQsB4d-21" value="Membership Account" style="rounded=0;whiteSpace=wrap;html=1;" parent="1" vertex="1">
                    <mxGeometry x="-2153" y="1046" width="120" height="60" as="geometry"/>
                </mxCell>
                <mxCell id="CxxvZHm-3sX6GsOQsB4d-23" style="rounded=0;orthogonalLoop=1;jettySize=auto;html=1;endArrow=oval;endFill=1;" parent="1" source="CxxvZHm-3sX6GsOQsB4d-22" target="CxxvZHm-3sX6GsOQsB4d-21" edge="1">
                    <mxGeometry relative="1" as="geometry"/>
                </mxCell>
                <mxCell id="CxxvZHm-3sX6GsOQsB4d-22" value="&lt;div&gt;Name&lt;/div&gt;&lt;div&gt;Email&lt;/div&gt;&lt;div&gt;Password&lt;/div&gt;&lt;div&gt;Confirm Password&lt;/div&gt;&lt;div&gt;Address&lt;/div&gt;&lt;div&gt;Birthday&lt;/div&gt;&lt;div&gt;Sex&lt;/div&gt;" style="rounded=0;whiteSpace=wrap;html=1;" parent="1" vertex="1">
                    <mxGeometry x="-2256.5" y="856" width="156" height="144" as="geometry"/>
                </mxCell>
                <mxCell id="CxxvZHm-3sX6GsOQsB4d-25" value="Thiết kế Sequence&lt;div&gt;シーケンス図&lt;/div&gt;" style="rounded=0;whiteSpace=wrap;html=1;fillColor=#ffe6cc;strokeColor=#d79b00;" parent="1" vertex="1">
                    <mxGeometry x="-351" y="735" width="169" height="65" as="geometry"/>
                </mxCell>
                <mxCell id="CxxvZHm-3sX6GsOQsB4d-26" value="&lt;font style=&quot;font-size: 53px;&quot;&gt;☚&lt;/font&gt;" style="shape=callout;whiteSpace=wrap;html=1;perimeter=calloutPerimeter;align=center;" parent="1" vertex="1">
                    <mxGeometry x="-273" y="657" width="195" height="76" as="geometry"/>
                </mxCell>
                <mxCell id="CxxvZHm-3sX6GsOQsB4d-28" value="Code" style="triangle;whiteSpace=wrap;html=1;fillColor=#f8cecc;strokeColor=#b85450;align=center;fontStyle=1;fontSize=19;" parent="1" vertex="1">
                    <mxGeometry x="151" y="1026" width="109" height="118" as="geometry"/>
                </mxCell>
                <mxCell id="CxxvZHm-3sX6GsOQsB4d-81" style="rounded=0;orthogonalLoop=1;jettySize=auto;html=1;" parent="1" source="CxxvZHm-3sX6GsOQsB4d-48" target="CxxvZHm-3sX6GsOQsB4d-80" edge="1">
                    <mxGeometry relative="1" as="geometry"/>
                </mxCell>
                <mxCell id="CxxvZHm-3sX6GsOQsB4d-48" value="ログイン画面" style="shape=umlBoundary;whiteSpace=wrap;html=1;" parent="1" vertex="1">
                    <mxGeometry x="-2087" y="1446" width="100" height="80" as="geometry"/>
                </mxCell>
                <mxCell id="CxxvZHm-3sX6GsOQsB4d-49" value="ユーザー" style="ellipse;shape=umlEntity;whiteSpace=wrap;html=1;" parent="1" vertex="1">
                    <mxGeometry x="-1523" y="1536" width="80" height="80" as="geometry"/>
                </mxCell>
                <mxCell id="CxxvZHm-3sX6GsOQsB4d-62" style="rounded=0;orthogonalLoop=1;jettySize=auto;html=1;startArrow=classic;startFill=1;endArrow=classic;endFill=1;" parent="1" source="CxxvZHm-3sX6GsOQsB4d-50" target="CxxvZHm-3sX6GsOQsB4d-49" edge="1">
                    <mxGeometry relative="1" as="geometry"/>
                </mxCell>
                <mxCell id="CxxvZHm-3sX6GsOQsB4d-64" style="rounded=0;orthogonalLoop=1;jettySize=auto;html=1;" parent="1" source="CxxvZHm-3sX6GsOQsB4d-50" target="CxxvZHm-3sX6GsOQsB4d-63" edge="1">
                    <mxGeometry relative="1" as="geometry"/>
                </mxCell>
                <mxCell id="CxxvZHm-3sX6GsOQsB4d-66" value="YES" style="edgeLabel;html=1;align=center;verticalAlign=middle;resizable=0;points=[];" parent="CxxvZHm-3sX6GsOQsB4d-64" vertex="1" connectable="0">
                    <mxGeometry x="-0.046" relative="1" as="geometry">
                        <mxPoint as="offset"/>
                    </mxGeometry>
                </mxCell>
                <mxCell id="CxxvZHm-3sX6GsOQsB4d-69" style="rounded=0;orthogonalLoop=1;jettySize=auto;html=1;" parent="1" source="CxxvZHm-3sX6GsOQsB4d-50" target="CxxvZHm-3sX6GsOQsB4d-68" edge="1">
                    <mxGeometry relative="1" as="geometry"/>
                </mxCell>
                <mxCell id="CxxvZHm-3sX6GsOQsB4d-70" value="NO" style="edgeLabel;html=1;align=center;verticalAlign=middle;resizable=0;points=[];" parent="CxxvZHm-3sX6GsOQsB4d-69" vertex="1" connectable="0">
                    <mxGeometry x="-0.0168" y="3" relative="1" as="geometry">
                        <mxPoint as="offset"/>
                    </mxGeometry>
                </mxCell>
                <mxCell id="CxxvZHm-3sX6GsOQsB4d-50" value="メールアドレスまたはパスワードが間違っている？" style="ellipse;shape=umlControl;whiteSpace=wrap;html=1;" parent="1" vertex="1">
                    <mxGeometry x="-1783" y="1511" width="117" height="130" as="geometry"/>
                </mxCell>
                <mxCell id="CxxvZHm-3sX6GsOQsB4d-58" style="rounded=0;orthogonalLoop=1;jettySize=auto;html=1;" parent="1" source="CxxvZHm-3sX6GsOQsB4d-52" target="CxxvZHm-3sX6GsOQsB4d-48" edge="1">
                    <mxGeometry relative="1" as="geometry"/>
                </mxCell>
                <mxCell id="CxxvZHm-3sX6GsOQsB4d-59" value="情報を入力し、ログインボタンをクリックする" style="edgeLabel;html=1;align=center;verticalAlign=middle;resizable=0;points=[];" parent="CxxvZHm-3sX6GsOQsB4d-58" vertex="1" connectable="0">
                    <mxGeometry x="-0.0094" y="-2" relative="1" as="geometry">
                        <mxPoint as="offset"/>
                    </mxGeometry>
                </mxCell>
                <mxCell id="CxxvZHm-3sX6GsOQsB4d-52" value="ユーザー" style="shape=umlActor;verticalLabelPosition=bottom;verticalAlign=top;html=1;" parent="1" vertex="1">
                    <mxGeometry x="-2249" y="1303" width="30" height="60" as="geometry"/>
                </mxCell>
                <mxCell id="CxxvZHm-3sX6GsOQsB4d-55" value="ロバストネス図" style="rounded=0;whiteSpace=wrap;html=1;fillColor=#fff2cc;strokeColor=#d6b656;" parent="1" vertex="1">
                    <mxGeometry x="-429" y="702" width="130" height="26" as="geometry"/>
                </mxCell>
                <mxCell id="CxxvZHm-3sX6GsOQsB4d-57" style="rounded=0;orthogonalLoop=1;jettySize=auto;html=1;" parent="1" source="CxxvZHm-3sX6GsOQsB4d-56" target="CxxvZHm-3sX6GsOQsB4d-48" edge="1">
                    <mxGeometry relative="1" as="geometry"/>
                </mxCell>
                <mxCell id="CxxvZHm-3sX6GsOQsB4d-56" value="表示する" style="ellipse;shape=umlControl;whiteSpace=wrap;html=1;" parent="1" vertex="1">
                    <mxGeometry x="-1822" y="1237" width="70" height="80" as="geometry"/>
                </mxCell>
                <mxCell id="CxxvZHm-3sX6GsOQsB4d-65" style="rounded=0;orthogonalLoop=1;jettySize=auto;html=1;" parent="1" source="CxxvZHm-3sX6GsOQsB4d-63" target="CxxvZHm-3sX6GsOQsB4d-48" edge="1">
                    <mxGeometry relative="1" as="geometry">
                        <mxPoint x="-1989.3846153846157" y="1513" as="targetPoint"/>
                    </mxGeometry>
                </mxCell>
                <mxCell id="CxxvZHm-3sX6GsOQsB4d-63" value="メッセージを表示する" style="ellipse;shape=umlControl;whiteSpace=wrap;html=1;" parent="1" vertex="1">
                    <mxGeometry x="-1900" y="1602" width="70" height="80" as="geometry"/>
                </mxCell>
                <mxCell id="CxxvZHm-3sX6GsOQsB4d-71" style="rounded=0;orthogonalLoop=1;jettySize=auto;html=1;" parent="1" source="CxxvZHm-3sX6GsOQsB4d-68" target="CxxvZHm-3sX6GsOQsB4d-75" edge="1">
                    <mxGeometry relative="1" as="geometry">
                        <mxPoint x="-1848" y="1823" as="targetPoint"/>
                    </mxGeometry>
                </mxCell>
                <mxCell id="CxxvZHm-3sX6GsOQsB4d-68" value="ログインする" style="ellipse;shape=umlControl;whiteSpace=wrap;html=1;" parent="1" vertex="1">
                    <mxGeometry x="-1684" y="1719" width="91" height="104" as="geometry"/>
                </mxCell>
                <mxCell id="CxxvZHm-3sX6GsOQsB4d-79" style="rounded=0;orthogonalLoop=1;jettySize=auto;html=1;" parent="1" source="CxxvZHm-3sX6GsOQsB4d-75" target="CxxvZHm-3sX6GsOQsB4d-78" edge="1">
                    <mxGeometry relative="1" as="geometry"/>
                </mxCell>
                <mxCell id="CxxvZHm-3sX6GsOQsB4d-75" value="表示する" style="ellipse;shape=umlControl;whiteSpace=wrap;html=1;" parent="1" vertex="1">
                    <mxGeometry x="-1853" y="1784" width="70" height="80" as="geometry"/>
                </mxCell>
                <mxCell id="CxxvZHm-3sX6GsOQsB4d-78" value="トップページ画面" style="shape=umlBoundary;whiteSpace=wrap;html=1;" parent="1" vertex="1">
                    <mxGeometry x="-2087" y="1784" width="100" height="80" as="geometry"/>
                </mxCell>
                <mxCell id="CxxvZHm-3sX6GsOQsB4d-83" style="rounded=0;orthogonalLoop=1;jettySize=auto;html=1;" parent="1" source="CxxvZHm-3sX6GsOQsB4d-80" target="CxxvZHm-3sX6GsOQsB4d-82" edge="1">
                    <mxGeometry relative="1" as="geometry"/>
                </mxCell>
                <mxCell id="CxxvZHm-3sX6GsOQsB4d-85" value="YES" style="edgeLabel;html=1;align=center;verticalAlign=middle;resizable=0;points=[];" parent="CxxvZHm-3sX6GsOQsB4d-83" vertex="1" connectable="0">
                    <mxGeometry x="-0.1057" relative="1" as="geometry">
                        <mxPoint as="offset"/>
                    </mxGeometry>
                </mxCell>
                <mxCell id="CxxvZHm-3sX6GsOQsB4d-86" style="rounded=0;orthogonalLoop=1;jettySize=auto;html=1;" parent="1" source="CxxvZHm-3sX6GsOQsB4d-80" target="CxxvZHm-3sX6GsOQsB4d-50" edge="1">
                    <mxGeometry relative="1" as="geometry"/>
                </mxCell>
                <mxCell id="CxxvZHm-3sX6GsOQsB4d-87" value="NO" style="edgeLabel;html=1;align=center;verticalAlign=middle;resizable=0;points=[];" parent="CxxvZHm-3sX6GsOQsB4d-86" vertex="1" connectable="0">
                    <mxGeometry x="-0.1243" y="1" relative="1" as="geometry">
                        <mxPoint as="offset"/>
                    </mxGeometry>
                </mxCell>
                <mxCell id="CxxvZHm-3sX6GsOQsB4d-80" value="空欄があるか？" style="ellipse;shape=umlControl;whiteSpace=wrap;html=1;" parent="1" vertex="1">
                    <mxGeometry x="-1783" y="1342" width="78" height="91" as="geometry"/>
                </mxCell>
                <mxCell id="CxxvZHm-3sX6GsOQsB4d-84" style="rounded=0;orthogonalLoop=1;jettySize=auto;html=1;" parent="1" source="CxxvZHm-3sX6GsOQsB4d-82" target="CxxvZHm-3sX6GsOQsB4d-48" edge="1">
                    <mxGeometry relative="1" as="geometry"/>
                </mxCell>
                <mxCell id="CxxvZHm-3sX6GsOQsB4d-82" value="メッセージを表示する" style="ellipse;shape=umlControl;whiteSpace=wrap;html=1;" parent="1" vertex="1">
                    <mxGeometry x="-1892" y="1472" width="70" height="80" as="geometry"/>
                </mxCell>
                <mxCell id="CxxvZHm-3sX6GsOQsB4d-90" value="ロバストネス図" style="rounded=0;whiteSpace=wrap;html=1;fillColor=#ffe6cc;strokeColor=#d79b00;" parent="1" vertex="1">
                    <mxGeometry x="-2299" y="1170" width="156" height="47" as="geometry"/>
                </mxCell>
                <mxCell id="CxxvZHm-3sX6GsOQsB4d-100" value="" style="endArrow=none;html=1;rounded=0;strokeWidth=5;" parent="1" edge="1">
                    <mxGeometry width="50" height="50" relative="1" as="geometry">
                        <mxPoint x="-1651" y="1183" as="sourcePoint"/>
                        <mxPoint x="-1651" as="targetPoint"/>
                    </mxGeometry>
                </mxCell>
            </root>
        </mxGraphModel>
    </diagram>
</mxfile>